<?xml version="1.0" encoding="UTF-8"?>
<svg version="1.1" viewBox="0 0 2048 876" width="1280" height="1280" xmlns="http://www.w3.org/2000/svg">
<path transform="translate(0)" d="m0 0h2048v876h-2048z" fill="#271D3C"/>
<path transform="translate(869,62)" d="m0 0 2 1-10 9-10 11-10 15-11 22-6 17-5 22-2 26 4 35 10 31 11 22 9 13 10 11 7 8 22 18 17 10 17 8 28 8 23 3 10 1 34-4 27-8 16-7 19-11 13-11 11-9 9-10 12-16 12-21 4-9 8-29 3-23v-25l-2-18-5-20-1-6 7 6 14 19 8 13 8 14 10 23 8 25 4 19 3 25 1 13v11l-3 30-7 31-7 21-12 26-8 13-8 12-9 12-12 14-11 11-8 7h-2v2l-19 14-16 10-23 12-18 7-22 6-36 6-26 2-31-4-20-4-26-7-17-7-16-8-16-9-14-10-9-7-10-9-15-14-9-11-11-15-8-13-8-14-9-19-8-22-6-24-3-19-1-12v-24l2-22 5-26 7-24 6-15 4-8 2-1 1 27 3 21 6 21 9 20 7 11 8 10 2 2-3-10-4-13-5-26-1-13v-15l2-21 5-24 9-25 12-23 14-19 23-23 19-14z" fill="#5196A6"/>
<path transform="translate(869,62)" d="m0 0 2 1-10 9-10 11-10 15-11 22-6 17-5 22-2 26 4 35 10 31 11 22 9 13 10 11 7 8 22 18 17 10 17 8 9 3-4 3-5-1-2-2-1 2 2 1 6 5 8 2 2 2-1 4-5 3h-15l-9 2-3 7 2 11 3 2 2 4 7 8 1 5 8 4v2l4 1 2 2 1 7 3 3v2h-2l-3 9v2l5 2-1 9h-2l6 4 1 2-2 5 4-1 2 4v5h-3l-1 2h-8l-5-2-5-5-2-1-7 3-5 4-3 3h-2l-1 8 12 13 1 4 4 2 3 4v2l4 2 2 6h3l3 4v3h2l-1 4-9-2-9-1-9-3-7-8-11-13h-3l-3 2-2-1 2 10h-3v7l8 4 13 3 1-2v2h2v2l-10-1-20-6-26-12-20-12-18-13-13-12-14-13-9-11-11-15-8-13-8-14-9-19-8-22-6-24-3-19-1-12v-24l2-22 5-26 7-24 6-15 4-8 2-1 1 27 3 21 6 21 9 20 7 11 8 10 2 2-3-10-4-13-5-26-1-13v-15l2-21 5-24 9-25 12-23 14-19 23-23 19-14z" fill="#5F87AE"/>
<path transform="translate(968,32)" d="m0 0 4 1-20 8-14 8-13 10-12 13-12 19-8 16-5 19-2 15v20l2 16 7 22 10 20 8 10 11 12 16 12 18 10 10 4 14 4 24 3 20-2 23-5 12-5 17-9 9-8 8-7 10-10 12-19 8-20 3-11 1-7 2 1v14l-1 16-4 15-8 21-11 21-11 14-8 9-13 10-7 6-25 14-26 8-27 3h-10l-22-2-25-7-17-8-15-9-14-12-8-7-11-13-6-9-11-21-9-26-2-12-1-11v-19l2-17 5-19 6-15 8-15 5-9 10-11 7-8 17-14 16-10 16-8 23-7z" fill="#5F87AE"/>
<path transform="translate(378,678)" d="m0 0h8l6 3 9 11 8 10 11 14 14 17 5 6 4-2 11-14 13-16 10-13 11-13 3-2h17l3 3 1 139-2 5-2 1h-10l-9-1-1-1v-102l-3 1-10 13-13 16-14 18-2 1h-13l-10-11-10-13-13-16-7-9-1 102-1 1-17 1-5-2-1-3v-139l2-3z" fill="#FDFDFC"/>
<path transform="translate(1129,171)" d="m0 0 2 1v14l-1 16-4 15-8 21-11 21-11 14-8 9-13 10-7 6-25 14-26 8-27 3h-10l-22-2-25-7-17-8-15-9-4-4-1-6-3-1-1-4-2-4 5 2 7 1 5 1v-11l2-6 5-3h7l4 2h7l-1-4-11-11-7-10-6-8-2-7-3-3v-4h2l8 11 12 13 16 12 18 10 10 4 14 4 24 3 20-2 23-5 12-5 17-9 9-8 8-7 10-10 12-19 8-20 3-11z" fill="#5196A6"/>
<path transform="translate(1088,679)" d="m0 0h18l8 10 11 17 29 44 14 21 3 4 1-93 3-3h18l3 2v142l-4 3-5 1h-9l-5-3-9-13-20-30-19-28-12-18-3-5-2-1v93l-4 4-5 1h-7l-6-2-2-4v-140z" fill="#FDFDFC"/>
<path transform="translate(1280,679)" d="m0 0h97l2 2v18l-1 3-3 1h-73l1 32 65 1 1 2 1 14-1 7-2 1h-65v42h77l2 2v21l-1 1-58 1h-38l-4-1-2-3v-142z" fill="#FDFDFC"/>
<path transform="translate(830,676)" d="m0 0h16l13 3 13 7 10 9 9 12 4 9v5l-4 2h-17l-14-16-12-6-6-1h-8l-9 2-11 7-6 7-4 9-1 5-1 33 2 16 5 10 4 5 11 7 9 3h10l13-4 9-6 6-7 4-10 1-11h-35l-2-4v-14l4-4h54l2 4 1 7v11l-2 16-4 13-7 11-10 10-10 6-13 5-5 1h-17l-15-4-15-8-13-13-7-15-3-12-1-12v-26l2-18 5-12 7-11 9-9 14-8 9-3z" fill="#FDFDFC"/>
<path transform="translate(634,679)" d="m0 0h23l4 8 20 58 17 48 8 23 1 7-1 2-3 1-18 1-4-6-16-47-6 2-40 18-7 20-5 12-5 1h-10l-7-3-1-4 20-60 14-41 12-33 3-6z" fill="#FDFDFC"/>
<path transform="translate(1500,679)" d="m0 0h22l4 6 20 58 12 34 14 40v7l-3 2-17 1-4-4-7-20-10-29-13 5-31 14h-2l-3 9-8 23-5 2h-11l-7-3-1-5 12-36 18-53 12-34 6-15z" fill="#FDFDFC"/>
<path transform="translate(1265,179)" d="m0 0h9l12 3 10 7 8 9 5 10 1 4v12l-5 14-9 13-11 11-14 10-12 5-6 2h-13l-10-3-9-6-5-5-5-8v-3h-2l-3-9v-11l3-13 7-11 7-8 8-7 9-7 12-6 6-2z" fill="#271D3C"/>
<path transform="translate(1113,130)" d="m0 0h1l3 20-1 19-4 16-5 12-6 10-11 14-10 9-13 9-15 7-19 5-14 2-14-1-17-3-16-6-13-8-11-9-8-7v-2h-2l-7-10-5-7v-2l6 2 21 10 22 6 8 1h23l20-4 14-5 19-10 11-8 15-13 11-14 10-17z" fill="#5096A6"/>
<path transform="translate(1358,99)" d="m0 0 4 1 10 9 1 3-15 4-16 9-12 11-9 14-1 3v9l5 9 8 7 4 2h9l11-4 13-9 13-13-2-6-2-4-4 2-5 5-8 7-3 2-9-9-2-4 13-11 1-2 7-4 12-10 6 5v2l4 2 1 3 7 6 7 10-2 6-3 1-1 4-14 15-10 9h-3l-1 3-18 9-12 3h-9l-10-4-9-7-7-9-4-8-1-4v-12l4-11 6-10 7-8 8-7 12-9 16-9z" fill="#271D3C"/>
<path transform="translate(1647,679)" d="m0 0h18l3 1 1 2v139l-2 4-8 2-11-1-3-4v-142z" fill="#FDFDFC"/>
<path transform="translate(265,679)" d="m0 0h18l3 2v143l-4 2-12 1-6-2-1-2-1-9v-133z" fill="#FDFDFC"/>
<path transform="translate(981,679)" d="m0 0h19l2 1 1 10v129l-2 6-10 2-9-1-3-5v-140z" fill="#FDFDFC"/>
<path transform="translate(1013,386)" d="m0 0 4 1 5 5 13 16 8 10 12 14 5 6-1 4-7 7-5 3h-12l-34-3-27-3h-8l7 8 3 3v2h2l7 8 9 11 8 11-2 4-4 3h-2v2l-4-1-8-9-7-8-9-11-18-21v-2h-2l1-4 5-5 5-4h19l38 3 19 2h6l-2-4-5-5-11-12-9-11-4-5-3-4 1-5z" fill="#4D879B"/>
<path transform="translate(1104,316)" d="m0 0h4l5 6v2l-13 5-10 6-8 6-8 7-8 11-2 6v10l3 8 6 8 8 5h7l15-4 12-8 3-3h2l1-3h2v-2h2l2-4 4-5v-5l-7-6h-5l-11 9-5-1-1-3h-3l2-4 11-10 12-9 5 1 14 16 5 7-2 5-9 11-12 12h-2v2l-14 10-15 6-7 1h-9l-10-4-7-5v-2h-2l-7-11-2-6v-13l4-13 8-11 2-3h2l1-4 6-4 4-3h2l1-3 2 1 1-3 7-4 5-3z" fill="#4D889B"/>
<path transform="translate(1440,49)" d="m0 0h12l6 3 7 7 3 5 1 9-4 10-9 11-3 3h-3v2h-3v2l-12 4h-7l-8-4-7-7-3-7v-10l4-8 9-10 14-9z" fill="#271D3C"/>
<path transform="translate(1261,201)" d="m0 0h8l10 5 7 9 1 2v11l-4 8-10 11-13 8-11 1-9-3-8-8-3-9 2-11 4-7 8-7 8-6z" fill="#271D3C"/>
<path transform="translate(1137,283)" d="m0 0h3l3 4v2l3 1 7 8 12 15 9 11 4 4 14-11 4-3h2l-1 9-6 8-3 1-2 4-4 1-2 4-5 2v2l-5-1-8-11-9-10-11-14-8-9-5-8 2-1 2-4z" fill="#4D889B"/>
<path transform="translate(1358,96)" d="m0 0 4 1 12 11 5 5 7 8v2h2l1 4h-2v-2l-3-1-3-3-12 10-4 3-3-1 5-4h2l2-4 5-3h2v-2h2l-3-5-5-4-7-8-4-3-6 1-18 10-13 11-9 8-7 11-4 9-1 4v12l3 9 8 11 9 7 10 4h9l12-3 18-9 1-2 3 1-7 6-15 8-12 3h-10l-10-4-6-4-10-11-7-14v-16l4-9 7-11 11-12 11-9 18-11zm10 16h5l-4 3-14 5-12 7-12 11-7 11-1 4v8l3 7 4 5 10 5 9-1 16-8 12-12 3-5-1-4-5 2-3 1-1 3-8 6-1 2-4-1-11-12v-3l8-7 5-3 1-2h2l-2 4-11 9 4 6 7 6 8-8 5-3 3-4h3l5 8-2 4-13 13-14 9-9 3h-9l-8-5-7-8-3-6v-9l5-10 7-9 7-7 14-9 12-5z" fill="#3A3252"/>
<path transform="translate(1265,179)" d="m0 0h9l12 3 10 7 8 9 5 10 1 4v12l-5 14-9 13-11 11-14 10-12 5-6 2h-13l-10-3-9-6-5-5-5-8v-3h-2l-3-9v-11l3-13 7-11 7-8 8-7 9-7 12-6 6-2zm-5 3-15 6-14 10-6 5v2l-4 2-7 9-2 6-2 7v18l4 10 6 7h2v2l15 8 4 1h14l13-5 10-7 10-8 7-7 7-11 4-9 1-4v-13l-6-12-9-10-11-6-4-1z" fill="#3A3151"/>
<path transform="translate(926,470)" d="m0 0 7 6 18 22 9 10 8 11-3 1-2 4-3 2h-5l-7-8-12-14-9-10-7-8-5-7h3l4-1h2l1-4-1-2h2z" fill="#4D879B"/>
<path transform="translate(802,585)" d="m0 0 3 1-25 13-8 7h-2v2h-2v2h-2l-2 7 5-1 13-5 20-9 11-3h11l6 3 5 5 4 5 1 4v8l-5 11-8 10-10 10-12 9-15 9-6 3-5-2-3-4v-2h-2l-4-6-3-2v-2l18-6 12-7 13-10 5-6 3-7 2 1-1 5-5 7h-2l-2 4-18 13-16 7-4 2 10 10v2l15-8 9-6h2v-2l8-6 10-9 7-10 3-6 1-8-5-10-4-3v-2l-9-1-9 1-12 4-25 12-6 2h-6l-1-1v-6l6-8h2l2-4 10-7 16-8z" fill="#3A3151"/>
<path transform="translate(1259,198)" d="m0 0h11l10 5 6 7 4 8v9l-3 8-8 10-11 9-9 4-2 1h-14l-9-6-7-9-1-3v-13l6-11 11-11zm2 3-10 4-12 9-4 4-5 10-1 9 4 9 7 7 9 3 11-1 10-6 9-8 6-8 2-5v-11l-6-9-5-4-7-3z" fill="#3A3151"/>
<path transform="translate(968,32)" d="m0 0 4 1-20 8-14 8-11 8-5 3-2-1 1-2-2-1v-3l-7 5-3 1-1 2h-7l-3 1 2-4 19-11 12-6 23-7z" fill="#5194A6"/>
<path transform="translate(644,718)" d="m0 0h2l10 29v3l-9 3-14 6h-2l1-6z" fill="#3B3657"/>
<path transform="translate(1510,719)" d="m0 0h2l9 25 1 5-11 5-12 5h-2l1-6 11-33z" fill="#3A3556"/>
<path transform="translate(693,648)" d="m0 0 7 1 18 7 13 6 13 5 15 7 7 3 9 3 7 1-3 3-3 1-1-3-9-2-12-5-57-23-4 1-12 11h-2l1 5 6 27 5 23 1 8h-2l-6-23-4-17-5-20 2-4 6-5 1-2h2l1-3z" fill="#3A3151"/>
<path transform="translate(792,570)" d="m0 0 5 1 7 8v2l-3-1v-2l-4-2-3-2-5 1-9 5-10 7-13 11-7 8-5 10v9l4 8 5 4 2 1h10l15-5 25-12 6-2h5l-1 2-12 4-21 11-13 5-5 1h-9l-7-4-6-7-2-4v-11l6-12 9-10 8-7 14-9 8-5z" fill="#3A3151"/>
<path transform="translate(913,523)" d="m0 0 12 1v1l-7 1 5 4 8 8 7 10v3l-11 9-6 3-9-8-11-14-6 2-15 14-13 10-5 4-1 3 14 15 6 7-2 4-3 1v-6l-10-11v-2l-4-2-6-9 10-7 9-8h2v-2l8-6 11-10 5-1 10 11 8 10 4 1 6-5 1-2h2l1-5-8-9v-2h-2l-8-10z" fill="#3A3151"/>
<path transform="translate(1441,46)" d="m0 0h10l10 5 7 8 3 7v10l-3 6-6 9-4 1 9-15 1-9-3-7-7-8-6-3h-12l-10 5-9 7-7 8-3 7v10l4 8 8 7 5 2h7l9-3h3v-2h3v-2l3 1-8 6-10 3h-9l-8-4-8-9-3-6v-12l6-10 12-12 10-6z" fill="#3B3454"/>
<path transform="translate(511,684)" d="m0 0 2 1 1 114 5-1 3-2 5 1-1 2-5 1-7 5-1 13 6-2 2-1h6l-4 4-9 4-3 2z" fill="#4E5F83"/>
<path transform="translate(547,772)" d="m0 0v3l-2 4 5 5 11 12 9 11 8 11 4 3h3v3l7 2h12l2 2h-15v2l12-1 2 1-2 5-6 4h-5l-8-8 1-5-2 1v-2l-4-2-9-11-7-8-9-11-13-14v-3h3v-2z" fill="#3A3253"/>
<path transform="translate(481,826)" d="m0 0 1 4-6 9-1 2v10l3 7 4 4 5 2h10l15-5 22-11 8-3h5l-3 3-13 5-23 12-15 4-9-1-7-5-6-9-1-5 1-8 5-9z" fill="#3A3151"/>
<path transform="translate(1446,27)" d="m0 0h8l12 3 9 5 7 7 6 10 2 5v18l-5 12-6 9-3 3-2-1 6-9 6-13 1-5v-10l-3-9-8-11-8-6-11-4h-15l-12 4-6 4h-3v-2h3v-2l13-6z" fill="#3B3353"/>
<path transform="translate(1414,42)" d="m0 0 3 1-17 17-8 14-2 13 2 9 7 12 7 7 12 7 4 1h12l8-1-3 3-9 2h-9l-10-4-9-7-8-9-6-11-1-4v-14l4-10 4-6h2l2-4 14-14z" fill="#3E3C5D"/>
<path transform="translate(1368,112)" d="m0 0h5l-4 3-14 5-12 7-12 11-7 11-1 4v8l3 7 4 5 10 5 9-1 12-6 5-1-4 4-12 6-4 1h-9l-8-5-7-8-3-6v-9l5-10 7-9 7-7 14-9 12-5z" fill="#3A3151"/>
<path transform="translate(1277,682)" d="m0 0h1v138h-2l-1-130 1-7z" fill="#4C597D"/>
<path transform="translate(978,680)" d="m0 0 2 1-1 129h-1l-1-7-1-88v-32h2z" fill="#4A577B"/>
<path transform="translate(885,493)" d="m0 0 5 4v3l4 2 9 10 2 3v3l-13-2-8-4-1-3 1-5h3l-2-5-1-5z" fill="#4D889B"/>
<path transform="translate(1376,122)" d="m0 0h2v2l-13 10-3-1 5-4h2l2-4zm-16 12h2l-2 4-11 9 4 6 7 6 8-8 5-3 3-4h3l5 8-2 4-13 13-4 1 3-5 8-7 4-6-1-4-5 2-3 1-1 3-8 6-1 2-4-1-11-12v-3l8-7 5-3z" fill="#3A3353"/>
<path transform="translate(787,149)" d="m0 0 1 3-8 24-4 20-2 21v15l2 19 5 24 6 17-1 3-6-6 1-2 1 1-1-5-3-8-5-26-1-9v-30l2-16 5-23 7-20z" fill="#3A3151"/>
<path transform="translate(1358,96)" d="m0 0 4 1 12 11 5 5 7 8v2h2l1 4h-2v-2l-3-1-3-3-3 2v-3h2l-3-5-5-4-7-8-4-3-6 1-18 10-13 11-9 8h-2l2-4 14-13 19-12z" fill="#3A3151"/>
<path transform="translate(884,519)" d="m0 0 7 4-5 5-12 11-14 11-7 5-4 4-4-1-9-10-5-7h-6v-3l3-1 1-3 4 4 8 11 6 7h3l1-3 10-8 11-9 13-11 1-2-2-1z" fill="#3A3151"/>
<path transform="translate(696,668)" d="m0 0 5 2 16 8 14 6v2l-5 2-4 4h-2v2l-9 7-4 3h-2l-7-26zm4 5 2 10 4 17 4-1 10-9 4-2 1-4-15-7z" fill="#3A3151"/>
<path transform="translate(816,546)" d="m0 0 2 1-3 5 11 12 9 11 12 14 8 10 8 9 5-2 5-5 3 1-11 10-4-1-14-17-11-13-8-10-9-10-8-10 1-3z" fill="#3A3151"/>
<path transform="translate(540,827)" d="m0 0h7l-4 2-20 7-28 13h-2v-2h-2v-6l4-8 5-1 2 2-4 3h-2l-2 5-1 3 11-4 16-7 9-4z" fill="#3A3151"/>
<path transform="translate(736,697)" d="m0 0 2 1-8 8-11 9-7 6 3 10v7l-10 8-9 7-2-1 6-7 10-7 3-1-4-15v-4l6-4 10-8 5-5z" fill="#3A3151"/>
<path transform="translate(1220,286)" d="m0 0h3l5 5v2l6 3 1 4-7 7-11 9-8 7h-2l1-4 7-6h2v-2h2v-2l10-8v-4l-6-6-4 1-6 6h-3l1-4 7-6h2z" fill="#3A3151"/>
<path transform="translate(557,828)" d="m0 0 4 1 5 5 4 7v10l-5 10-8 11-3 4h-5l2-4h2l2-4 2-3h2l6-12 1-3v-9l-7-9-3-3z" fill="#3A3151"/>
<path transform="translate(587,826)" d="m0 0h17l2 2h-15v2l12-1 2 1-2 5-6 4h-5l-8-8 1-4z" fill="#3C3657"/>
<path transform="translate(751,172)" d="m0 0h2l-1 8v24l3 25 7 23 8 18 1 4-3-3-9-20-7-25-2-17-1-26-2 1 3-10z" fill="#3A3151"/>
<path transform="translate(921,193)" d="m0 0 9 4 15 8 15 6 17 4 8 1h17l16-1v1l-12 2h-23l-16-3-16-5-23-11-2-1-1 2-4-5z" fill="#3A3151"/>
<path transform="translate(650,779)" d="m0 0h2l1 6-3 8-3 3h-2v2l-4 1v2l-3-1 3-5h3l-1-10-2-2z" fill="#3A3353"/>
<path transform="translate(926,198)" d="m0 0 6 2 16 8-2 4-1-2-5 2-5-2v-2l-3 1-6-9z" fill="#4D889B"/>
<path transform="translate(522,796)" d="m0 0 5 1-1 2-5 1-7 5-1 13 6-2 2-1h6l-4 4-9 4-3 2 1-26 7-1z" fill="#3A3151"/>
<path transform="translate(548,848)" d="m0 0 3 1-2 6-11 12-9 7-1 2h-7l5-4 9-7 8-8z" fill="#3A3151"/>
<path transform="translate(1510,719)" d="m0 0h2l3 8 1 9-1-2-7 1-1 2h-2l1-7 3-10z" fill="#2F2A4B"/>
<path transform="translate(565,758)" d="m0 0 18 6 10 4h7l2-2-1 5-2 3-12-5-16-6-6-2-5 1v-2z" fill="#3B3454"/>
<path transform="translate(1376,122)" d="m0 0h2v2l-13 10-3-1 5-4h2l2-4zm-16 12h2l-2 4-11 9 4 6 4 4v2l-4-2-7-8v-3l8-7 5-3z" fill="#3F3D5E"/>
<path transform="translate(919,469)" d="m0 0 4 1 3 4-2 5-6 1-2-1-1 2-3-3 2-6z" fill="#6087AF"/>
<path transform="translate(1504,741)" d="m0 0h1l1 6v9l-9 3 1-6 4-10z" fill="#2F2B4B"/>
<path transform="translate(1362,99)" d="m0 0 5 2 12 12 7 8v2h2l1 4h-2v-2l-3-1-3-3-3 2v-3h2l-3-5-5-4-7-8-3-2z" fill="#3D3859"/>
<path transform="translate(767,690)" d="m0 0 2 1-4 5h-2l-2 4-6-1-9-4-8 2 5-5 8 1 6 3 4-1z" fill="#3A3151"/>
<path transform="translate(644,718)" d="m0 0h2l4 11 1 9-3-3v-3l-2-1v-3l-2 1-2 5h-1v-7z" fill="#343252"/>
<path transform="translate(574,781)" d="m0 0 11 2 1 7-1 1h-6l-5-7z" fill="#3A3151"/>
<path transform="translate(441,868)" d="m0 0h11l3 3-15 1-8 3-1 1h-6l1-2 8-4z" fill="#3A3151"/>
<path transform="translate(617,709)" d="m0 0 4 1-2 9-2 6-4-2-1-7 2-3h2z" fill="#393050"/>
<path transform="translate(1129,167)" d="m0 0 3 3v20l-1 13-2 4 1-21v-14l-2 10h-1l1-13z" fill="#3A3151"/>
<path transform="translate(920,464)" d="m0 0h3l2 5-2 3v-2l-5 1-4 1v5l-3-2 1-3 5-5z" fill="#4D889B"/>
<path transform="translate(484,737)" d="m0 0 1 2h2v35h-1l-1-26-2-6z" fill="#393050"/>
<path transform="translate(521,815)" d="m0 0h6l-4 4-9 4-3 2 1-7 7-2z" fill="#3C3757"/>
<path transform="translate(1376,144)" d="m0 0m-1 1m-1 1 1 3-4 2-1 3-8 6-1 2-4-1v-3l3 1 8-8 5-3z" fill="#3D395A"/>
<path transform="translate(885,171)" d="m0 0 2 1 4 15 1 5-5-4-1-7-2-5z" fill="#5191A5"/>
<path transform="translate(1400,140)" d="m0 0 4 2 5 7-8 11h-3l3-5 3-3 1-4-5-7z" fill="#424365"/>
<path transform="translate(1458,111)" d="m0 0 3 1-4 2-1 3-10 5h-4v-2l7-3z" fill="#454A6D"/>
<path transform="translate(1140,120)" d="m0 0 4 2 4 4-1 2v4l2 7v5l-2-4-5-15z" fill="#3A3454"/>
<path transform="translate(488,825)" d="m0 0 10 1h12l-1 2h-3l-1 2-5 1 1-3h-12z" fill="#454B6E"/>
<path transform="translate(1376,122)" d="m0 0h2v2l-13 10-3-1 5-4h2l2-4zm-16 12h2l-2 4-2-1z" fill="#424466"/>
<path transform="translate(919,341)" d="m0 0 8 1 6 2-4 3-5-1-2-2h-2l-1 2-1-3z" fill="#5C89AC"/>
<path transform="translate(833,801)" d="m0 0 8 1 7 1v1l-5 1h-10l-4-2z" fill="#474F71"/>
<path transform="translate(1395,62)" d="m0 0 2 1-2 5-4 9h-2l1-7z" fill="#3C3555"/>
<path transform="translate(889,515)" d="m0 0 14 2 2 1 1-2v2h2v2l-10-1-9-3z" fill="#5D87AC"/>
<path transform="translate(1208,284)" d="m0 0h1l1 15-2 5-1 7h-1l1-17z" fill="#3A3151"/>
<path transform="translate(921,193)" d="m0 0 9 4 4 4-6-2-2-1-1 2-4-5z" fill="#3A3353"/>
<path transform="translate(565,758)" d="m0 0 9 3 1 2-7-1-3-1-5 1v-2z" fill="#3A3151"/>
<path transform="translate(818,705)" d="m0 0 2 1-12 12v-3l6-7z" fill="#3E4264"/>
<path transform="translate(1388,75)" d="m0 0 2 2v7l-2 4h-1v-10z" fill="#403F61"/>
<path transform="translate(972,30)" d="m0 0h7l-1 2-6 1h-12v-1z" fill="#3B3756"/>
<path transform="translate(620,710)" d="m0 0 1 3-4 12h-1v-7z" fill="#383859"/>
<path transform="translate(992,485)" d="m0 0 5 1v5h-4l-1-5z" fill="#6087AF"/>
</svg>
